<mxfile host="app.diagrams.net" modified="2024-05-10T09:36:45.669Z" agent="Mozilla/5.0 (Windows NT 10.0; Win64; x64) AppleWebKit/537.36 (KHTML, like Gecko) Chrome/124.0.0.0 Safari/537.36" version="24.0.2" etag="0draLbuMQJM2MWCix8Wg" type="github">
  <diagram name="Page-1" id="frpIFcg8lut3lZ-cxe1h">
    <mxGraphModel>
      <root>
        <mxCell id="0" />
        <mxCell id="1" parent="0" />
      </root>
    </mxGraphModel>
  </diagram>
</mxfile>
